<svg width="24" height="24" viewBox="0 0 24 24" fill="none" xmlns="http://www.w3.org/2000/svg">
<path fill-rule="evenodd" clip-rule="evenodd" d="M10.5133 5.36249C8.69389 3.54307 5.74403 3.54307 3.92462 5.36249C2.1052 7.1819 2.10521 10.1318 3.92462 11.9512L4.70433 12.7309C4.71707 12.7436 4.72944 12.7567 4.74142 12.77L12.0001 20.0287L19.2585 12.7703C19.2706 12.7569 19.283 12.7438 19.2959 12.7309L20.0756 11.9512C21.895 10.1318 21.895 7.1819 20.0756 5.36249C18.2562 3.54307 15.3063 3.54307 13.4869 5.36249L12.7072 6.14219C12.3167 6.53272 11.6835 6.53272 11.293 6.14219L10.5133 5.36249ZM20.7486 14.1067C20.7365 14.1201 20.724 14.1332 20.7112 14.1461L12.7083 22.149C12.5207 22.3366 12.2662 22.442 12.0009 22.4419C12.0007 22.4419 12.0012 22.4419 12.0009 22.4419C12.0007 22.4419 11.9996 22.4419 11.9993 22.4419C11.734 22.442 11.4796 22.3366 11.292 22.149L3.28909 14.1461C3.27619 14.1332 3.26372 14.1201 3.25167 14.1067L2.51041 13.3654C-0.0900556 10.7649 -0.0900594 6.54874 2.51041 3.94827C5.11087 1.34781 9.32705 1.34781 11.9275 3.94827L12.0001 4.02087L12.0727 3.94827C14.6732 1.34781 18.8894 1.34781 21.4898 3.94827C24.0903 6.54874 24.0903 10.7649 21.4898 13.3654L20.7486 14.1067Z" fill="#2D3648"/>
</svg>
